<svg width="56" height="25" viewBox="0 0 56 25" fill="none" xmlns="http://www.w3.org/2000/svg">
<path d="M54.8422 23.9379H4.31581C3.0363 23.9379 1.99902 23.2276 1.99902 22.377V2.57848C1.99902 1.72785 3.03423 1.04102 4.31581 1.04102H54.8422V23.9379Z" fill="white"/>
<path fill-rule="evenodd" clip-rule="evenodd" d="M3.73364 0H53.0966C54.6761 0 55.9209 1.19269 55.9209 2.72283V22.3742C55.9209 23.8114 54.6501 25 53.0966 25H3.73364C2.18159 25 0.920898 23.7855 0.920898 22.3141V2.66271C0.920898 1.19132 2.18014 0 3.73364 0ZM3.73127 23.8556H38.9324V1.12891H3.73127C2.8384 1.12891 2.11719 1.81064 2.11719 2.65495V22.3063C2.11719 23.1506 2.83985 23.8556 3.73127 23.8556ZM54.7208 21.2734L52.0336 23.8651H48.3164L54.7208 17.75V21.2734ZM53.1042 15.7813H54.7241V2.71506C54.7241 1.82293 54.0057 1.12891 53.0999 1.12891H40.1367V15.7813H42.0306L40.1367 17.6038V21.0726L45.6901 15.7813H49.3928L40.907 23.8556H44.6184L53.1042 15.7813Z" fill="#F6921E"/>
<path d="M8.32467 21.5396C10.8446 21.5396 11.8428 20.2581 11.8428 18.1227V16.5079H9.50603V18.6009C9.50603 19.2034 9.21321 19.5299 8.33766 19.5299C7.48806 19.5299 7.16928 19.2034 7.16928 18.6009V6.38986C7.16928 5.78736 7.48806 5.45948 8.33766 5.45948C9.21321 5.45948 9.50603 5.786 9.50603 6.38986V8.49379H11.8428V6.86802C11.8428 4.73266 10.8446 3.45117 8.32467 3.45117C5.83071 3.45117 4.83398 4.73266 4.83398 6.86802V18.1241C4.83398 20.2581 5.83071 21.5396 8.32467 21.5396Z" fill="#0064B4"/>
<path fill-rule="evenodd" clip-rule="evenodd" d="M17.6643 17.8186H15.2237L14.7751 21.2874H12.4932L15.0924 3.70312H17.7984L20.3977 21.2874H18.1158L17.6643 17.8186ZM17.4251 15.7842L16.4442 7.74414L15.4619 15.7842H17.4251Z" fill="#0064B4"/>
<path fill-rule="evenodd" clip-rule="evenodd" d="M24.4565 13.6313H23.6473V21.2874H21.3105V3.70312H25.6768C27.1091 3.70312 28.0669 4.57476 28.0669 5.9068V10.9071C28.0669 11.8866 27.79 12.6654 26.6764 12.8922C28.0554 13.2679 28.2559 14.022 28.2559 15.1778V19.148C28.2559 19.9021 28.4088 20.6289 28.7535 21.2874H26.6317C25.9682 20.5101 25.9191 19.7013 25.9191 18.1684V15.0275C25.9191 13.9974 25.3321 13.6313 24.4565 13.6313ZM25.1966 5.74023H23.6445V11.6613H25.1966C25.5947 11.6613 25.7274 11.5384 25.7274 11.1613V6.21157C25.7274 5.8345 25.5947 5.74023 25.1966 5.74023Z" fill="#0064B4"/>
<path d="M36.1514 18.4752V16.0133C36.1514 14.9832 35.86 14.2045 35.1965 13.4503L32.4602 10.2097C32.0087 9.68238 31.7938 9.23018 31.7938 8.47604V6.39122C31.7938 5.78873 32.1198 5.46084 32.8352 5.46084C33.5521 5.46084 33.8766 5.78736 33.8766 6.39122V8.73425H36.2134V6.51691C36.2134 4.75862 35.0768 3.45117 32.8482 3.45117C30.6196 3.45117 29.457 4.75725 29.457 6.51691V8.97879C29.457 10.0089 29.7542 10.7876 30.3903 11.5418L33.1814 14.7824C33.6329 15.3097 33.8766 15.762 33.8766 16.5161V18.6009C33.8766 19.2034 33.5189 19.5299 32.8035 19.5299C32.0866 19.5299 31.7303 19.2034 31.7303 18.6009V16.2688H29.457V18.4752C29.4585 20.2349 30.5764 21.541 32.8049 21.541C35.0335 21.541 36.1514 20.2349 36.1514 18.4752Z" fill="#0064B4"/>
<path d="M46.5952 8.62943C47.1318 7.58702 47.4275 6.83835 47.4275 5.99541C47.4275 4.36417 46.6804 3.70703 45.5221 3.70703C44.5903 3.70703 43.6181 4.30952 43.6181 6.04322H44.8456C44.8456 5.20575 45.0576 4.76173 45.5365 4.76173C46.0313 4.76173 46.2 5.19072 46.2 6.04596C46.2 6.63342 46.1236 7.15531 45.5307 8.27832L43.5488 12.1679V13.2198H47.4636V12.1433H44.8023L46.5952 8.62943Z" fill="#0064B4"/>
<path fill-rule="evenodd" clip-rule="evenodd" d="M49.524 3.82227H50.6794V9.86221H51.3112V10.9388H50.6794V13.2135H49.4793V10.9401H47.1426V9.91549L49.524 3.82227ZM48.2676 9.86101H49.4792V6.73242L48.2676 9.86101Z" fill="#0064B4"/>
</svg>
